<?xml version="1.0" encoding="utf-8"?>
<!-- Generator: Adobe Illustrator 25.2.1, SVG Export Plug-In . SVG Version: 6.00 Build 0)  -->
<!DOCTYPE svg PUBLIC "-//W3C//DTD SVG 1.1//EN" "http://www.w3.org/Graphics/SVG/1.1/DTD/svg11.dtd" [
	<!ENTITY ns_extend "http://ns.adobe.com/Extensibility/1.0/">
	<!ENTITY ns_ai "http://ns.adobe.com/AdobeIllustrator/10.0/">
	<!ENTITY ns_graphs "http://ns.adobe.com/Graphs/1.0/">
	<!ENTITY ns_vars "http://ns.adobe.com/Variables/1.0/">
	<!ENTITY ns_imrep "http://ns.adobe.com/ImageReplacement/1.0/">
	<!ENTITY ns_sfw "http://ns.adobe.com/SaveForWeb/1.0/">
	<!ENTITY ns_custom "http://ns.adobe.com/GenericCustomNamespace/1.0/">
	<!ENTITY ns_adobe_xpath "http://ns.adobe.com/XPath/1.0/">
]>
<svg version="1.1" id="Layer_1" xmlns:x="&ns_extend;" xmlns:i="&ns_ai;" xmlns:graph="&ns_graphs;"
	 xmlns="http://www.w3.org/2000/svg" xmlns:xlink="http://www.w3.org/1999/xlink" x="0px" y="0px" viewBox="0 0 667 539.5"
	 style="enable-background:new 0 0 667 539.5;" xml:space="preserve">
<style type="text/css">
	.st0{fill:url(#SVGID_1_);}
	.st1{fill:#F9F8DA;}
	.st2{fill:#09B9BF;}
	.st3{fill:#FDB650;}
	.st4{fill:#1A1A1A;}
	.st5{fill:#045BA6;}
	.st6{fill:#998EE8;}
	.st7{fill:#FFFFFF;}
	.st8{fill:#9CF1CC;}
	.st9{fill:url(#SVGID_2_);}
	.st10{fill:url(#SVGID_3_);}
	.st11{fill:#DE644E;}
	.st12{fill:url(#SVGID_4_);}
	.st13{fill:#FDAD97;}
	.st14{fill:url(#SVGID_5_);}
	.st15{fill:#E87B6A;}
	.st16{fill:#91372B;}
	.st17{fill:#1B7C7C;}
	.st18{opacity:0.2;fill:url(#SVGID_6_);}
	.st19{fill:url(#SVGID_7_);}
	.st20{fill:#C45348;}
	.st21{fill:url(#SVGID_8_);}
	.st22{fill:#D0D0D0;}
	.st23{opacity:0.5;fill:url(#SVGID_9_);}
	.st24{opacity:0.15;fill:url(#SVGID_10_);}
	.st25{opacity:0.15;fill:url(#SVGID_11_);}
	.st26{fill:#9BA8E2;}
</style>
<metadata>
	<sfw  xmlns="&ns_sfw;">
		<slices></slices>
		<sliceSourceBounds  bottomLeftOrigin="true" height="539.5" width="667" x="-37.3" y="-569.5"></sliceSourceBounds>
	</sfw>
</metadata>
<g>
	<linearGradient id="SVGID_1_" gradientUnits="userSpaceOnUse" x1="319.0905" y1="0" x2="319.0905" y2="245.5295">
		<stop  offset="0" style="stop-color:#FD7B48"/>
		<stop  offset="0.8478" style="stop-color:#E65939"/>
	</linearGradient>
	<path class="st0" d="M511.7,245.5H126.5c-4.2,0-7.6-3.4-7.6-7.6V7.6c0-4.2,3.4-7.6,7.6-7.6h385.3c4.2,0,7.6,3.4,7.6,7.6v230.3
		C519.3,242.1,515.9,245.5,511.7,245.5z"/>
	<path class="st1" d="M145.4,213.5V32c0-3,2.5-5.5,5.5-5.5h336.5c3,0,5.5,2.5,5.5,5.5v181.5c0,3-2.5,5.5-5.5,5.5H150.9
		C147.8,219,145.4,216.6,145.4,213.5z"/>
	<g>
		<rect x="426.5" y="45.7" class="st2" width="50.8" height="5.7"/>
		<rect x="426.5" y="56" class="st2" width="50.8" height="5.7"/>
		<rect x="426.5" y="79.4" class="st2" width="50.8" height="5.7"/>
		<rect x="426.5" y="89.6" class="st2" width="50.8" height="5.7"/>
	</g>
	<g>
		<rect x="426.5" y="109" class="st3" width="50.8" height="5.7"/>
		<rect x="426.5" y="119.2" class="st3" width="50.8" height="5.7"/>
		<rect x="426.5" y="142.6" class="st3" width="50.8" height="5.7"/>
		<rect x="426.5" y="152.9" class="st3" width="50.8" height="5.7"/>
	</g>
	<g>
		<g>
			<path class="st4" d="M173.4,137.6c-0.6-1.5,5.5-7.6,5.5-7.6c1.2,1.2-4.9,7.3-4.9,7.3C173.9,137.5,173.6,137.6,173.4,137.6z
				 M185.6,125.4c-0.6-1.5,5.5-7.6,5.5-7.6c1.2,1.2-4.9,7.3-4.9,7.3C186.1,125.3,185.8,125.4,185.6,125.4z M197.8,113.2
				c-0.6-1.5,5.5-7.6,5.5-7.6c1.2,1.2-4.9,7.3-4.9,7.3C198.2,113.1,198,113.2,197.8,113.2z M210,101c-0.6-1.5,5.5-7.6,5.5-7.6
				c1.2,1.2-4.9,7.3-4.9,7.3C210.4,100.9,210.2,101,210,101z M222.2,88.8c-0.6-1.5,5.5-7.6,5.5-7.6c1.2,1.2-4.9,7.3-4.9,7.3
				C222.6,88.7,222.4,88.8,222.2,88.8z M234.4,76.6c-0.6-1.5,5.5-7.6,5.5-7.6c1.2,1.2-4.9,7.3-4.9,7.3
				C234.8,76.6,234.6,76.6,234.4,76.6z M246.5,64.5c-0.6-1.5,5.5-7.6,5.5-7.6c1.2,1.2-4.9,7.3-4.9,7.3
				C247,64.4,246.8,64.5,246.5,64.5z M258.7,52.3c-0.6-1.5,2.9-5,2.9-5c1.2,1.2-2.3,4.8-2.3,4.8C259.2,52.2,258.9,52.3,258.7,52.3z"
				/>
		</g>
		<g>
			<path class="st4" d="M262.3,138h-88.8c-0.6-0.6-0.6-89.4-0.6-89.4c0.6-0.6,89.4-0.6,89.4-0.6c0.6,0.6,0.6,89.4,0.6,89.4
				C262.8,137.7,262.6,138,262.3,138z M174,136.8h87.7V49.1H174V136.8z"/>
		</g>
		<path class="st5" d="M185,136.7c0,6.4-5.2,11.6-11.6,11.6c-6.4,0-11.6-5.2-11.6-11.6c0-6.4,5.2-11.6,11.6-11.6
			C179.8,125.1,185,130.3,185,136.7z"/>
		<path class="st2" d="M273.9,48.4c0,6.4-5.2,11.6-11.6,11.6c-6.4,0-11.6-5.2-11.6-11.6c0-6.4,5.2-11.6,11.6-11.6
			C268.7,36.8,273.9,42,273.9,48.4z"/>
	</g>
	<g>
		<path class="st5" d="M229,178.9c0,14.1-11.4,25.5-25.5,25.5c-14.1,0-25.5-11.4-25.5-25.5c0-14.1,11.4-25.5,25.5-25.5
			C217.6,153.3,229,164.8,229,178.9z"/>
		<path class="st2" d="M262.3,178.9c0,14.1-11.4,25.5-25.5,25.5c-14.1,0-25.5-11.4-25.5-25.5c0-14.1,11.4-25.5,25.5-25.5
			C250.8,153.3,262.3,164.8,262.3,178.9z"/>
		<g>
			<path class="st3" d="M229,178.9c0-7.7-3.5-14.7-8.9-19.4c-5.4,4.7-8.9,11.6-8.9,19.4c0,7.7,3.5,14.7,8.9,19.4
				C225.5,193.5,229,186.6,229,178.9z"/>
		</g>
	</g>
	<path class="st6" d="M511.7,245.5H126.5c-4.2,0-7.6-3.4-7.6-7.6V7.6c0-4.2,3.4-7.6,7.6-7.6h385.3c4.2,0,7.6,3.4,7.6,7.6v230.3
		C519.3,242.1,515.9,245.5,511.7,245.5z"/>
	<path class="st7" d="M145.4,213.5V32c0-3,2.5-5.5,5.5-5.5h336.5c3,0,5.5,2.5,5.5,5.5v181.5c0,3-2.5,5.5-5.5,5.5H150.9
		C147.8,219,145.4,216.6,145.4,213.5z"/>
	<g>
		<rect x="426.5" y="45.7" class="st8" width="50.8" height="5.7"/>
		<rect x="426.5" y="56" class="st8" width="50.8" height="5.7"/>
		<rect x="426.5" y="79.4" class="st8" width="50.8" height="5.7"/>
		<rect x="426.5" y="89.6" class="st8" width="50.8" height="5.7"/>
	</g>
	<g>
		<rect x="426.5" y="109" class="st6" width="50.8" height="5.7"/>
		<rect x="426.5" y="119.2" class="st6" width="50.8" height="5.7"/>
		<rect x="426.5" y="142.6" class="st6" width="50.8" height="5.7"/>
		<rect x="426.5" y="152.9" class="st6" width="50.8" height="5.7"/>
	</g>
	<g>
		<g>
			<path class="st4" d="M173.4,137.6c-0.6-1.5,5.5-7.6,5.5-7.6c1.2,1.2-4.9,7.3-4.9,7.3C173.9,137.5,173.6,137.6,173.4,137.6z
				 M185.6,125.4c-0.6-1.5,5.5-7.6,5.5-7.6c1.2,1.2-4.9,7.3-4.9,7.3C186.1,125.3,185.8,125.4,185.6,125.4z M197.8,113.2
				c-0.6-1.5,5.5-7.6,5.5-7.6c1.2,1.2-4.9,7.3-4.9,7.3C198.2,113.1,198,113.2,197.8,113.2z M210,101c-0.6-1.5,5.5-7.6,5.5-7.6
				c1.2,1.2-4.9,7.3-4.9,7.3C210.4,100.9,210.2,101,210,101z M222.2,88.8c-0.6-1.5,5.5-7.6,5.5-7.6c1.2,1.2-4.9,7.3-4.9,7.3
				C222.6,88.7,222.4,88.8,222.2,88.8z M234.4,76.6c-0.6-1.5,5.5-7.6,5.5-7.6c1.2,1.2-4.9,7.3-4.9,7.3
				C234.8,76.6,234.6,76.6,234.4,76.6z M246.5,64.5c-0.6-1.5,5.5-7.6,5.5-7.6c1.2,1.2-4.9,7.3-4.9,7.3
				C247,64.4,246.8,64.5,246.5,64.5z M258.7,52.3c-0.6-1.5,2.9-5,2.9-5c1.2,1.2-2.3,4.8-2.3,4.8C259.2,52.2,258.9,52.3,258.7,52.3z"
				/>
		</g>
		<g>
			<path class="st4" d="M262.3,138h-88.8c-0.6-0.6-0.6-89.4-0.6-89.4c0.6-0.6,89.4-0.6,89.4-0.6c0.6,0.6,0.6,89.4,0.6,89.4
				C262.8,137.7,262.6,138,262.3,138z M174,136.8h87.7V49.1H174V136.8z"/>
		</g>
		<path class="st8" d="M185,136.7c0,6.4-5.2,11.6-11.6,11.6c-6.4,0-11.6-5.2-11.6-11.6c0-6.4,5.2-11.6,11.6-11.6
			C179.8,125.1,185,130.3,185,136.7z"/>
		<path class="st8" d="M273.9,48.4c0,6.4-5.2,11.6-11.6,11.6c-6.4,0-11.6-5.2-11.6-11.6c0-6.4,5.2-11.6,11.6-11.6
			C268.7,36.8,273.9,42,273.9,48.4z"/>
	</g>
	<g>
		<path class="st8" d="M223.8,178.9c0,12.7-10.3,23-23,23c-12.7,0-23-10.3-23-23c0-12.7,10.3-23,23-23
			C213.6,155.9,223.8,166.2,223.8,178.9z"/>
		<path class="st8" d="M281.5,178.9c0,12.7-10.3,23-23,23c-12.7,0-23-10.3-23-23c0-12.7,10.3-23,23-23
			C271.3,155.9,281.5,166.2,281.5,178.9z"/>
	</g>
	<path class="st4" d="M373.9,91.2c-29.8-15-44.1,12.5-44.1,12.5c-9-4.1-18.6,25.3-1.1,54.7l54.8,0.4
		C403,122.8,395.7,102.2,373.9,91.2z"/>
	<path class="st8" d="M459.8,237.7c-18.8-36.4-99.2-33.2-110-34.8c-2.9,0.1-3.9,0.2-5.1,0.2c-25.8,1.9-94,7.2-111.2,56.8
		c0,0-29.2,95.5-27,151.2c0.8,21.4,29.2,48.7,31.8,44.9c-1.4,10.2-10.3,81-10.3,81h255.9c0,0-4.5-33.6-7.3-79.9
		C489.1,462.3,453.5,210.5,459.8,237.7z"/>
	<path class="st8" d="M226.8,356.4c31.6-60,123.8-153.1,123.8-153.1C222.6,176.1,66.9,416,99.4,538.9l159.3,0.5
		c11-24.3,14.1-50.6,5.4-69.8L226.8,356.4z"/>
	<path class="st8" d="M487,356.4c-31.6-60-123.8-153.1-123.8-153.1c128-27.2,283.7,212.7,251.2,335.6l-159.3,0.5
		c-11-24.3-14.1-50.6-5.4-69.8L487,356.4z"/>
	<path class="st4" d="M357.5,181.3c-15.1-0.5-20.1,3.8-20.1,3.8l19.2,22l19.2-22C375.8,185.1,372.6,181.9,357.5,181.3z"/>
	<polygon class="st8" points="99.2,266.8 85,289.1 113.4,289.1 	"/>
	<g>
		<path class="st4" d="M626.3,380.7c0-1.5,14.7-3.7,22.8-19.4c1.5-2.9,1.9-5.9,1.5-8.7c-2.3,0.8-4.9,1.2-7.5,1.4
			c-7.6,0.3-14.5-2.3-17.1-6.4c-1.5-2.4-1.5-5.1,0-7.9c2.8-5.2,8.4-6.5,14.7-3.2c4.8,2.5,9.6,7.9,11.1,14.1c3.7-1.5,7.4-4.2,9.9-8.9
			c9.1-17.8-0.5-29-1-29.5c1.2-0.9,11.9,11.5,2.3,30.2c-2.3,4.4-6.1,7.7-10.9,9.7c0.5,3.2,0.1,6.6-1.6,9.9
			c-8.5,16.4-23.9,18.7-24,18.7C626.4,380.7,626.4,380.7,626.3,380.7z M634,336.1c-2.4,0-4.9,1-6.7,4.2c-1.2,2.3-1.2,4.4,0,6.4
			c2.3,3.7,8.8,6,15.8,5.7c1.7-0.1,4.4-0.4,7.3-1.3c-1.4-5.9-5.9-10.9-10.4-13.3C638.9,337.2,636.5,336.1,634,336.1z"/>
	</g>
	<path class="st8" d="M580.2,71.2l10.1-10.1c1.1-1.1,1.1-2.8,0-3.9c-1.1-1.1-2.8-1.1-3.9,0l-10.1,10.1l-10.1-10.1
		c-1.1-1.1-2.8-1.1-3.9,0c-1.1,1.1-1.1,2.8,0,3.9l10.1,10.1l-10.1,10.1c-1.1,1.1-1.1,2.8,0,3.9c0.5,0.5,1.2,0.8,1.9,0.8
		c0.7,0,1.4-0.3,1.9-0.8l10.1-10.1l10.1,10.1c0.5,0.5,1.2,0.8,1.9,0.8c0.7,0,1.4-0.3,1.9-0.8c1.1-1.1,1.1-2.8,0-3.9L580.2,71.2z"/>
	<linearGradient id="SVGID_2_" gradientUnits="userSpaceOnUse" x1="356.5683" y1="241.0011" x2="356.5683" y2="173.0731">
		<stop  offset="5.586590e-03" style="stop-color:#FDAD97"/>
		<stop  offset="0.9242" style="stop-color:#EB6F5F"/>
	</linearGradient>
	<path class="st9" d="M373.9,211.2l-2.8-60.6l-14.6,10.6L342,150.6l-2.8,60.6c0,0,6.1,5.4,17.3,5.4
		C369.2,216.7,373.9,211.2,373.9,211.2z"/>
	<linearGradient id="SVGID_3_" gradientUnits="userSpaceOnUse" x1="391.6046" y1="116.952" x2="391.6046" y2="169.55">
		<stop  offset="0" style="stop-color:#FDAD97"/>
		<stop  offset="0.9559" style="stop-color:#EB6F5F"/>
	</linearGradient>
	<path class="st10" d="M401,132.7c-6.3-9.6-20.8,0.7-20.8,0.7l3.2,21.2C394.2,157.3,408.3,143.7,401,132.7z"/>
	<path class="st11" d="M399.2,135.7c2.3,3.6-0.1,9.2-5.3,12.5c-5.2,3.3-11.3,3.1-13.6-0.5c-2.3-3.6,0.1-9.2,5.3-12.5
		C390.8,131.8,396.9,132.1,399.2,135.7z"/>
	
		<linearGradient id="SVGID_4_" gradientUnits="userSpaceOnUse" x1="1264.1331" y1="116.952" x2="1264.1331" y2="169.55" gradientTransform="matrix(-1 0 0 1 1584.948 0)">
		<stop  offset="0" style="stop-color:#FDAD97"/>
		<stop  offset="0.9559" style="stop-color:#EB6F5F"/>
	</linearGradient>
	<path class="st12" d="M311.4,132.7c6.3-9.6,20.8,0.7,20.8,0.7l-3.2,21.2C318.2,157.3,304.2,143.7,311.4,132.7z"/>
	<path class="st11" d="M313.3,135.7c-2.3,3.6,0.1,9.2,5.3,12.5c5.2,3.3,11.3,3.1,13.6-0.5c2.3-3.6-0.1-9.2-5.3-12.5
		C321.6,131.8,315.5,132.1,313.3,135.7z"/>
	<ellipse class="st7" cx="376.5" cy="270.7" rx="5.7" ry="7.3"/>
	<ellipse class="st3" cx="376.5" cy="361.9" rx="5.7" ry="7.3"/>
	<path class="st3" d="M382.2,439.3c0,4-2.6,7.3-5.7,7.3c-3.2,0-5.7-3.3-5.7-7.3c0-4,2.6-7.3,5.7-7.3
		C379.6,432.1,382.2,435.3,382.2,439.3z"/>
	<ellipse class="st7" cx="376.5" cy="501.6" rx="5.7" ry="7.3"/>
	<path class="st13" d="M386.3,129.8c0,0,0-3.5,0-3.5c-16.8,2.3-42.5-6.6-55.1-12.2c-3,10.4-4.4,26.9-4.4,30.8
		c0.2,3.1,0.4,5.8,0.8,7.9c1.5,9,4,20.2,14.2,24.6c5.1,2.2,23.5,2.2,28.6,0c10.3-4.4,12.7-15.6,14.2-24.6c0.3-1.9,0.6-4.4,0.8-7.2
		L386.3,129.8z"/>
	<path class="st7" d="M375.8,185.1l-19.2,22.8l-19.2-22.8l-13.3,16.1l6.8,22.6c1.9,6.5,9.8,9.1,15.2,5.1l10.5-7.7
		c0.1,0,8.5,6.2,8.5,6.2c6.4,4.7,15.6,1.6,17.8-6.1l5.7-20L375.8,185.1z"/>
	<linearGradient id="SVGID_5_" gradientUnits="userSpaceOnUse" x1="355.9882" y1="140.8495" x2="355.9882" y2="218.3404">
		<stop  offset="0" style="stop-color:#FDAD97"/>
		<stop  offset="0.9559" style="stop-color:#EB6F5F"/>
	</linearGradient>
	<path class="st14" d="M326.8,144.8c0.2,3.2,0.5,5.9,0.8,8c1.6,9,4.1,20.2,14.5,24.6c2.5,1.1,8.4,1.6,14.3,1.6
		c5.8,0,11.5-0.6,14-1.6c10.3-4.4,12.7-15.6,14.2-24.6c0.2-1.1,0.3-2.3,0.5-3.8c-3.3,10.9-10.8,22.4-28,22.4
		c-23.5,0-28.8-20-30.1-31.2C326.9,142.3,326.8,143.9,326.8,144.8z"/>
	<path class="st15" d="M383.8,147.5c0,4.1-3.4,7.5-7.5,7.5c-4.1,0-7.5-3.4-7.5-7.5c0-4.1,3.4-7.5,7.5-7.5
		C380.5,140,383.8,143.4,383.8,147.5z"/>
	<path class="st16" d="M369.2,140.1c0.7,0,1.3-0.6,1.3-1.3l-0.1-3.2c0-0.7-0.6-1.3-1.3-1.3c-0.7,0-1.3,0.6-1.3,1.3l0.1,3.2
		C367.9,139.5,368.5,140.1,369.2,140.1z"/>
	<path class="st15" d="M329.8,147.5c0,4.1,3.4,7.5,7.5,7.5c4.1,0,7.5-3.4,7.5-7.5c0-4.1-3.4-7.5-7.5-7.5
		C333.1,140,329.8,143.4,329.8,147.5z"/>
	<path class="st16" d="M343.8,140.1c-0.7,0-1.3-0.6-1.3-1.3v-3.2c0-0.7,0.6-1.3,1.3-1.3s1.3,0.6,1.3,1.3v3.2
		C345.1,139.5,344.5,140.1,343.8,140.1z"/>
	<g>
		<path class="st7" d="M356.6,534.3c-0.8-0.8-0.8-307.1-0.8-307.1c1.6,0,1.6,306.3,1.6,306.3C357.4,533.9,357.1,534.3,356.6,534.3z"
			/>
	</g>
	<g>
		<path class="st4" d="M47.4,401.9c-2.1,0-4.3-0.3-6.5-1c-6.5-2.2-11.7-7.6-15.5-16.3c-4.2-9.6-1-15.9,2.5-19.4
			c2.1-2.2,4.8-3.9,7.8-5.1c-0.8-1.4-1.3-2.8-1.5-4.4c1.3,1.3,1.8,2.7,2.6,4c5.9-2.2,12.5-2.4,16.7-0.6c2.8,1.1,4.3,3.1,4.3,5.5
			c0,2.9-1.9,4.7-5.2,4.9c-5,0.3-12.5-3-16.3-8.3c-2.9,1.1-5.6,2.8-7.6,4.9c-3.2,3.3-6.2,9.1-2.3,18.2c3.7,8.3,8.6,13.6,14.8,15.6
			c8.6,2.9,16.7-1.6,16.8-1.6C58.3,399.3,53.6,401.9,47.4,401.9z M37.4,360.6c3.5,4.8,10.5,7.9,15.1,7.6c1.9-0.1,4.1-0.9,4.2-3.8
			c0-2.5-2-3.8-3.6-4.5C49.1,358.5,42.9,358.7,37.4,360.6z"/>
	</g>
	<path class="st6" d="M614.4,538.9c2.9-11.1,4.3-23.2,4.4-35.9c-44.3-2.4-70.5,18.1-84.8,36.2L614.4,538.9z"/>
	<path class="st3" d="M99.4,538.9C96.4,527.8,95,515.8,95,503c44.3-2.4,70.5,18.1,84.8,36.2L99.4,538.9z"/>
	<g>
		<path class="st5" d="M356.6,222c-0.8-0.8-0.8-14.9-0.8-14.9c1.6,0,1.6,14.1,1.6,14.1C357.4,221.6,357.1,222,356.6,222z"/>
	</g>
	<g>
		<path class="st17" d="M269.1,492.8c-10.9-68.1-99.3-82-100.2-82.1c1.1-1.5,90.7,12.6,101,81.2
			C269.1,492.8,269.1,492.8,269.1,492.8z"/>
	</g>
	<g>
		<path class="st17" d="M444.5,492.8c9.5-69.5,99.1-83.6,100-83.7c-0.7,1.7-89.1,15.7-99.2,83C445.2,492.5,444.9,492.8,444.5,492.8z
			"/>
	</g>
	<path class="st6" d="M494.5,481.2H219.2c-5.3,0-9.6-4.3-9.6-9.6V296c0-5.3,4.3-9.6,9.6-9.6h275.3c5.3,0,9.6,4.3,9.6,9.6v175.5
		C504.2,476.8,499.8,481.2,494.5,481.2z"/>
	<linearGradient id="SVGID_6_" gradientUnits="userSpaceOnUse" x1="209.6033" y1="383.7625" x2="504.1534" y2="383.7625">
		<stop  offset="5.586590e-03" style="stop-color:#808080"/>
		<stop  offset="1" style="stop-color:#000000"/>
	</linearGradient>
	<path class="st18" d="M494.5,481.2H219.2c-5.3,0-9.6-4.3-9.6-9.6V296c0-5.3,4.3-9.6,9.6-9.6h275.3c5.3,0,9.6,4.3,9.6,9.6v175.5
		C504.2,476.8,499.8,481.2,494.5,481.2z"/>
	<path class="st7" d="M395,445h-76.2c-2.5,0-4.5-2-4.5-4.5v-52.4c0-2.5,2-4.5,4.5-4.5H395c2.5,0,4.5,2,4.5,4.5v52.4
		C399.5,443,397.4,445,395,445z"/>
	<g>
		<linearGradient id="SVGID_7_" gradientUnits="userSpaceOnUse" x1="265.8234" y1="432.8251" x2="265.8234" y2="653.2654">
			<stop  offset="5.586590e-03" style="stop-color:#FDAD97"/>
			<stop  offset="1" style="stop-color:#EB6F5F"/>
		</linearGradient>
		<path class="st19" d="M304.8,520.5c-1.9-7.8-8.7-29.9-16.8-30.2c-5-0.2-9.5,1.1-12.3,2.1c-5-3.5-15.4-2.1-19.2-0.4
			c-5.3-1.4-13.1-1.2-21.1,4.6c-7.3,5.3-10.9,11.8-7.5,20.2c3.1,7.6,11.5,11.6,19.2,9c5-1.7,10.1-2.4,12.8,0
			c3.8,3.4,9.9,3.5,13.6,1.4c5.5,2.7,13.8,1.8,16.6-1C297,528.3,306.3,526.7,304.8,520.5z"/>
		<g>
			<path class="st20" d="M269.3,528c-7.4-28.8-12.9-35.4-13-35.4c-0.3-0.4-0.3-0.9,0.1-1.2c1.5,0.3,7.1,6.8,13.8,35.6
				c0.1,0.5-0.2,0.9-0.7,1C269.4,528,269.3,528,269.3,528z"/>
		</g>
		<g>
			<path class="st20" d="M290.3,527c-5.8-25-15.1-33.9-15.1-34c-0.4-0.3-0.4-0.9,0-1.2c0.3-0.3,0.9-0.4,1.2,0
				c0.4,0.4,9.7,9.3,14.8,34.2c0.1,0.5-0.2,0.9-0.7,1C290.4,527,290.3,527,290.3,527z"/>
		</g>
	</g>
	<g>
		
			<linearGradient id="SVGID_8_" gradientUnits="userSpaceOnUse" x1="14095.376" y1="432.8251" x2="14095.376" y2="653.2654" gradientTransform="matrix(-1 0 0 1 14543.3115 0)">
			<stop  offset="5.586590e-03" style="stop-color:#FDAD97"/>
			<stop  offset="1" style="stop-color:#EB6F5F"/>
		</linearGradient>
		<path class="st21" d="M409,520.5c1.9-7.8,8.7-29.9,16.8-30.2c5-0.2,9.5,1.1,12.3,2.1c5-3.5,15.4-2.1,19.2-0.4
			c5.3-1.4,13.1-1.2,21.1,4.6c7.3,5.3,10.9,11.8,7.5,20.2c-3.1,7.6-11.5,11.6-19.2,9c-5-1.7-10.1-2.4-12.8,0
			c-3.8,3.4-9.9,3.5-13.6,1.4c-5.5,2.7-13.8,1.8-16.6-1C416.8,528.3,407.5,526.7,409,520.5z"/>
		<g>
			<path class="st20" d="M444.5,528c-0.7-0.1-1-0.6-0.9-1.1c6.7-28.8,12.3-35.3,12.6-35.5c0.3-0.4,0.9-0.4,1.2-0.1
				c0,1.3-5.5,7.9-12.1,36C445.2,527.7,444.9,528,444.5,528z"/>
		</g>
		<g>
			<path class="st20" d="M423.5,527c-0.7-0.1-1-0.6-0.9-1.1c5.1-24.9,14.4-33.8,14.8-34.2c0.4-0.3,0.9-0.3,1.2,0
				c0.3,0.4,0.3,0.9,0,1.2c-0.1,0.1-9.3,9-14.3,33.3C424.3,526.7,423.9,527,423.5,527z"/>
		</g>
	</g>
	<path class="st7" d="M488.1,537.1H229.7c-4.9,0-8.9-4-8.9-8.9c0-4.9,4-8.9,8.9-8.9h258.4c4.9,0,8.9,4,8.9,8.9
		C497,533.1,493,537.1,488.1,537.1z"/>
	<path class="st22" d="M371.2,537.1h-28.6V420.5c0-7.9,6.4-14.3,14.3-14.3c7.9,0,14.3,6.4,14.3,14.3V537.1z"/>
	<path class="st22" d="M371.2,537.1h-28.6V420.5c0-7.9,6.4-14.3,14.3-14.3c7.9,0,14.3,6.4,14.3,14.3V537.1z"/>
	<g>
		<path class="st7" d="M340.1,150.7c-7.3,0-13.2-5.9-13.2-13.2c0-7.3,5.9-13.2,13.2-13.2c7.3,0,13.2,5.9,13.2,13.2
			C353.4,144.8,347.4,150.7,340.1,150.7z M340.1,125.6c-6.6,0-11.9,5.3-11.9,11.9s5.3,11.9,11.9,11.9S352,144,352,137.5
			S346.7,125.6,340.1,125.6z"/>
	</g>
	<g>
		<path class="st7" d="M372.6,150.7c-7.3,0-13.2-5.9-13.2-13.2c0-7.3,5.9-13.2,13.2-13.2c7.3,0,13.2,5.9,13.2,13.2
			C385.8,144.8,379.9,150.7,372.6,150.7z M372.6,125.6c-6.6,0-11.9,5.3-11.9,11.9s5.3,11.9,11.9,11.9s11.9-5.3,11.9-11.9
			S379.2,125.6,372.6,125.6z"/>
	</g>
	<linearGradient id="SVGID_9_" gradientUnits="userSpaceOnUse" x1="467.4616" y1="384.3221" x2="467.4616" y2="257.8912">
		<stop  offset="5.586590e-03" style="stop-color:#808080"/>
		<stop  offset="1" style="stop-color:#000000"/>
	</linearGradient>
	<path class="st23" d="M466.5,286.4h-35.8v34.5c0,16.3,13.2,29.5,29.5,29.5h43.8V324C504.2,303.3,487.2,286.4,466.5,286.4z"/>
	<linearGradient id="SVGID_10_" gradientUnits="userSpaceOnUse" x1="533.5663" y1="313.8255" x2="533.5663" y2="675.7687">
		<stop  offset="5.586590e-03" style="stop-color:#808080"/>
		<stop  offset="1" style="stop-color:#000000"/>
	</linearGradient>
	<path class="st24" d="M614.4,538.9c14.7-55.5-9-134.8-51.1-202.6c0.1,0.2,57.7,167.2-100.5,182.9c-5.1,0.5-9.9,1.1-14.3,1.8
		c1.7,6.2,4,12.3,6.7,18.4L614.4,538.9z"/>
	<linearGradient id="SVGID_11_" gradientUnits="userSpaceOnUse" x1="180.1488" y1="320.7775" x2="180.1488" y2="671.5685">
		<stop  offset="5.586590e-03" style="stop-color:#808080"/>
		<stop  offset="1" style="stop-color:#000000"/>
	</linearGradient>
	<path class="st25" d="M249.1,519.3c-140-13.9-111-146.2-102.4-176.6C107,409,85.1,485.2,99.4,538.9l159.3,0.5
		c2.7-6,4.9-12,6.6-18.1C260.3,520.5,254.9,519.8,249.1,519.3z"/>
	<g>
		<path class="st4" d="M652.8,539.3H2.4c-1.3,0-2.4-1.1-2.4-2.4c0-1.3,1.1-2.4,2.4-2.4h650.4c1.3,0,2.4,1.1,2.4,2.4
			C655.1,538.2,654.1,539.3,652.8,539.3z"/>
	</g>
	<path class="st4" d="M329.8,103.7c0,0,8.3-22.3,27.7-23.9L329.8,103.7z"/>
	<path class="st4" d="M357.5,86.8c0,0,24.6-7.4,36.3,13.9L357.5,86.8z"/>
	<path class="st4" d="M329.8,103.7c0,0-2.4-14.1-19.1-11.9l19.1,12.6V103.7z"/>
	<path class="st26" d="M593.2,331.1H448.9c-4.2,0-7.6-3.4-7.6-7.6V179.2c0-4.2,3.4-7.6,7.6-7.6h144.4c4.2,0,7.6,3.4,7.6,7.6v144.4
		C600.8,327.7,597.4,331.1,593.2,331.1z"/>
	<g>
		<path class="st7" d="M504.3,271.2c-0.7,0-1.5-0.3-2.1-0.9c-1.1-1.1-1.1-3,0-4.1l32.5-32.5c1.1-1.1,3-1.1,4.1,0
			c1.1,1.1,1.1,3,0,4.1l-32.5,32.5C505.8,270.9,505.1,271.2,504.3,271.2z"/>
	</g>
	<g>
		<path class="st7" d="M549.1,281.9c-0.7,0-1.5-0.3-2.1-0.9c-1.1-1.1-1.1-3,0-4.1l25.2-25.2L548.6,228c-1.1-1.1-1.1-3,0-4.1
			c1.1-1.1,3-1.1,4.1,0l25.8,25.8c1.1,1.1,1.1,3,0,4.1l-27.3,27.3C550.6,281.6,549.9,281.9,549.1,281.9z"/>
	</g>
	<g>
		<path class="st7" d="M491.8,281.9c-0.7,0-1.5-0.3-2.1-0.9l-27.3-27.3c-1.1-1.1-1.1-3,0-4.1l25.8-25.8c1.1-1.1,3-1.1,4.1,0
			c1.1,1.1,1.1,3,0,4.1l-23.7,23.7l25.2,25.2c1.1,1.1,1.1,3,0,4.1C493.3,281.6,492.5,281.9,491.8,281.9z"/>
	</g>
	<g>
		<path class="st26" d="M203,535.2H51.7c-9.3,0-16.8-7.6-16.8-16.8c0-9.3,7.6-16.8,16.8-16.8H203c9.3,0,16.8,7.6,16.8,16.8
			C219.8,527.7,212.2,535.2,203,535.2z"/>
		<path class="st7" d="M199.8,526.9H54.9c-4.7,0-8.5-3.8-8.5-8.5c0-4.7,3.8-8.5,8.5-8.5h144.8c4.7,0,8.5,3.8,8.5,8.5
			C208.3,523.1,204.4,526.9,199.8,526.9z"/>
		<path class="st6" d="M186.6,501.6H64.8c-8.6,0-15.6-7-15.6-15.6c0-8.6,7-15.6,15.6-15.6h121.7c8.6,0,15.6,7,15.6,15.6
			C202.2,494.6,195.1,501.6,186.6,501.6z"/>
		<path class="st7" d="M184.8,493.9H66.7c-4.3,0-7.9-3.5-7.9-7.9c0-4.3,3.5-7.9,7.9-7.9h118.1c4.3,0,7.9,3.5,7.9,7.9
			C192.6,490.3,189.1,493.9,184.8,493.9z"/>
	</g>
	<g>
		<path class="st20" d="M354.7,154.1c-3.3-2.4-4.6-4.1-4.6-5.7c0-1.6,1.2-2.7,2.3-3.6c0.6-0.5,1.2-1,1.5-1.6c1.1-2,0.8-8.9,0.6-11.3
			c0-0.5,0.3-0.9,0.8-1c0.5,0,0.9,0.3,1,0.8c0.1,1,0.7,9.5-0.8,12.3c-0.5,0.8-1.2,1.5-1.9,2.1c-1,0.9-1.7,1.5-1.6,2.2
			c0,0.7,0.6,1.9,3.3,4.1c0.4,0.3,0.5,0.9,0.1,1.3C355.2,154,355,154.1,354.7,154.1z"/>
	</g>
	<g>
		<path class="st7" d="M352.5,140.1c-0.4-1.2,1.4-3.1,3.9-3.1c1.5-0.1,2.8,0.6,4,1.8c-1.9,0-2.9-0.5-4-0.4c-1.9,0-3.5,1.6-3.5,1.6
			C352.9,140,352.7,140.1,352.5,140.1z"/>
	</g>
	<g>
		<path class="st20" d="M358.7,160.6c-0.1,0-6.3-0.9-6.3-0.9c-0.5-0.1-0.8-0.5-0.8-1c0.1-0.5,0.5-0.8,1-0.8l6.2,0.9
			c0.5,0.1,0.8,0.5,0.8,1C359.5,160.3,359.2,160.6,358.7,160.6z"/>
	</g>
	<g>
		<path class="st26" d="M113.2,387.4h143.7c18,0,32.7-14.7,32.7-32.7s-14.7-32.7-32.7-32.7H113.2c-18,0-32.7,14.7-32.7,32.7
			S95.2,387.4,113.2,387.4z"/>
		<circle class="st8" cx="117.2" cy="354.6" r="23.8"/>
	</g>
</g>
</svg>
