<svg version="1.1" id="Layer_1" xmlns="http://www.w3.org/2000/svg" xmlns:xlink="http://www.w3.org/1999/xlink" x="0px" y="0px"
	 width="100%" viewBox="0 0 800 800" enable-background="new 0 0 800 800" xml:space="preserve">
<path fill="#FFFFFF" opacity="1.000000" stroke="none" 
	d="
M444.000000,801.000000 
	C296.000000,801.000000 148.500000,801.000000 1.000000,801.000000 
	C1.000000,534.333313 1.000000,267.666656 1.000000,1.000000 
	C267.666656,1.000000 534.333313,1.000000 801.000000,1.000000 
	C801.000000,267.666656 801.000000,534.333313 801.000000,801.000000 
	C682.166687,801.000000 563.333313,801.000000 444.000000,801.000000 
M194.500305,470.000000 
	C212.107620,470.000000 229.714935,470.000000 247.322235,470.000000 
	C247.324341,469.699432 247.326462,469.398865 247.328568,469.098297 
	C237.971390,468.612762 228.614197,468.127228 219.044754,467.630646 
	C214.730469,458.443634 210.429276,449.092773 205.967270,439.819336 
	C193.353714,413.604431 180.697769,387.409851 168.011398,361.230103 
	C161.067093,346.899750 154.005035,332.626404 147.062469,318.295197 
	C146.287384,316.695190 145.947052,314.884583 145.350845,313.000061 
	C149.787506,313.000061 153.802979,312.790100 157.775345,313.112061 
	C159.196655,313.227295 161.228424,314.302063 161.770721,315.491089 
	C169.353699,332.117004 176.634644,348.880554 184.196640,365.516235 
	C187.193726,372.109497 190.728043,378.457336 193.971649,384.940002 
	C202.806976,402.598328 211.060806,420.578033 220.632370,437.827026 
	C227.100357,449.483032 235.720139,459.796326 248.836136,465.298218 
	C248.956131,466.760712 249.083740,468.316101 249.210419,469.860046 
	C252.923645,469.860046 256.219330,469.860046 259.739136,469.860046 
	C259.930847,468.191010 260.110535,466.626862 260.285919,465.099854 
	C268.183594,464.741913 276.009094,459.343201 277.834198,451.696014 
	C279.853851,443.233521 281.576874,434.507568 281.817261,425.851624 
	C282.386017,405.369354 282.205963,384.857605 281.909668,364.363861 
	C281.769958,354.699738 281.367493,344.934509 279.806885,335.424713 
	C278.174377,325.477112 272.498688,318.023468 262.213440,314.900299 
	C261.141663,314.574890 260.492157,312.858826 259.635406,311.773621 
	C272.082062,311.773621 283.430878,311.773621 294.727356,311.773621 
	C294.727356,364.282959 294.727356,416.018250 294.727356,467.686157 
	C283.448029,468.217102 272.441620,468.735199 261.435242,469.253296 
	C261.440582,469.413971 261.445923,469.574615 261.451263,469.735291 
	C286.789520,469.735291 312.127808,469.735291 337.466064,469.735291 
	C337.464966,469.289642 337.463867,468.843964 337.462769,468.398315 
	C326.334198,468.398315 315.205627,468.398315 304.335999,468.398315 
	C304.335999,415.589935 304.335999,363.854218 304.335999,311.000000 
	C319.246124,311.000000 333.825562,310.820526 348.398407,311.054230 
	C361.110718,311.258118 370.603546,317.182251 376.752563,328.355011 
	C381.909790,337.725616 383.115234,347.975037 381.792175,358.242065 
	C380.908936,365.095886 378.785034,372.038177 375.867950,378.314148 
	C372.723663,385.078918 366.213531,388.852814 360.160950,391.251190 
	C365.349243,393.445129 371.987061,394.728790 376.602264,398.492615 
	C389.837494,409.286224 402.353149,420.975739 414.955994,432.526550 
	C423.271820,440.148224 432.053314,446.960846 442.638733,451.127411 
	C447.385315,452.995728 452.195587,454.090088 457.248291,452.008667 
	C458.180206,451.624786 459.434875,452.024353 460.540588,452.062286 
	C460.339600,453.221436 460.548828,454.944366 459.865936,455.441315 
	C457.041565,457.496429 454.158569,459.842651 450.912994,460.878845 
	C440.471954,464.212280 430.631042,461.138855 422.642670,454.796021 
	C410.053772,444.800354 398.512207,433.494843 386.364563,422.930908 
	C378.857819,416.402832 371.368378,409.773163 363.279785,404.020599 
	C356.278259,399.041138 348.188965,395.949585 341.001434,395.142059 
	C349.973450,402.657532 360.080811,410.536835 369.502808,419.164520 
	C381.372772,430.033875 392.650085,441.548645 404.246613,452.719025 
	C411.406677,459.615997 419.955231,463.840027 430.251587,465.517456 
	C428.770294,470.153931 424.236328,468.141846 421.132904,469.681885 
	C503.503632,469.681885 585.402649,469.681885 667.301697,469.681885 
	C667.306458,469.546265 667.311157,469.410645 667.315857,469.275024 
	C656.017944,467.346375 644.720032,465.417755 633.097717,463.433746 
	C632.512451,447.502197 631.918762,431.341736 631.332703,415.389191 
	C636.238281,414.300781 636.826965,416.723938 637.000183,419.578003 
	C637.612427,429.664856 642.567444,437.894653 649.378967,444.645813 
	C660.125671,455.297211 673.500427,459.830444 688.633240,457.924866 
	C696.391785,456.947937 703.253052,453.584686 707.952393,447.077576 
	C717.928711,433.263397 713.561768,418.059448 698.274536,411.235046 
	C682.213989,404.065460 665.454468,398.474243 649.077576,391.997955 
	C627.952087,383.643768 620.543396,362.113892 629.312805,342.332825 
	C630.309692,340.084137 631.855835,338.078979 633.632812,335.164520 
	C633.882324,336.703766 634.036926,337.049500 633.972656,337.348145 
	C629.751404,356.969574 637.247681,371.470245 653.833130,379.655304 
	C668.396545,386.842377 684.519104,390.802063 699.503113,397.235046 
	C706.550903,400.260834 713.132507,405.096313 718.858093,410.288635 
	C725.534851,416.343445 726.710327,425.088623 725.921570,433.732666 
	C724.901062,444.917389 720.631592,454.784180 711.069031,461.276245 
	C705.761047,464.879822 699.700500,467.374664 695.353577,469.649841 
	C710.768311,469.649841 727.841309,469.649841 744.429871,469.649841 
	C744.429871,456.871490 744.429871,444.445953 744.429871,431.352020 
	C740.371948,436.868164 740.471436,444.794250 731.909180,446.292755 
	C738.894348,427.905792 734.115051,410.422852 722.099487,399.442719 
	C714.219849,392.242035 704.687927,388.672607 695.066406,384.947327 
	C681.477173,379.685760 667.770264,374.643738 654.553040,368.554260 
	C650.324158,366.605927 645.777405,362.217712 644.312378,357.940125 
	C637.835266,339.028839 643.385498,320.723267 664.506836,313.057068 
	C668.987488,311.430786 673.719604,310.497406 678.079651,309.314331 
	C469.941284,309.314331 261.552856,309.314331 53.272774,309.314331 
	C53.272774,361.352264 53.272774,413.075439 53.272774,465.938080 
	C57.001785,463.084351 60.202175,460.953278 63.034184,458.411743 
	C74.147232,448.438629 80.559067,435.252869 87.247528,422.299408 
	C101.051636,395.565155 114.804802,368.804199 128.406708,341.966919 
	C129.348648,340.108429 129.892685,336.709167 128.868561,335.429535 
	C124.835205,330.389893 120.574867,325.298401 115.506996,321.379333 
	C109.159431,316.470703 101.309517,314.785492 93.221291,314.855499 
	C93.221291,313.453613 93.221291,312.381287 93.221291,312.002869 
	C106.328606,312.002869 119.220695,311.929321 132.108475,312.131470 
	C133.235001,312.149139 134.750198,313.767487 135.372437,315.001526 
	C138.114685,320.440247 140.546341,326.034393 143.180588,331.529053 
	C151.099838,348.047516 159.032883,364.559509 167.012848,381.048706 
	C178.428879,404.637939 189.917358,428.192108 201.313339,451.791016 
	C203.801498,456.943512 206.029892,462.221466 208.456268,467.615845 
	C196.719589,468.158020 185.650635,468.669373 174.581680,469.180725 
	C174.587601,469.453827 174.593521,469.726898 174.599442,470.000000 
	C180.899826,470.000000 187.200211,470.000000 194.500305,470.000000 
M95.966690,432.293793 
	C94.874626,434.448029 93.795593,436.608978 92.688301,438.755371 
	C87.126129,449.536957 89.199089,460.950897 101.890305,465.383667 
	C101.965134,466.780365 102.042671,468.227631 102.128563,469.830872 
	C125.744553,469.830872 149.169601,469.830872 172.931305,469.830872 
	C172.931305,468.283234 172.931305,466.852905 172.931305,465.486847 
	C184.104660,463.512207 185.983383,455.812225 183.247299,448.914581 
	C177.646011,434.793579 171.181335,421.012695 164.919205,407.160950 
	C164.464371,406.154846 162.777939,405.099762 161.656494,405.091400 
	C144.195038,404.961395 126.732338,405.000488 109.575874,405.000488 
	C104.934067,414.064911 100.466927,422.788239 95.966690,432.293793 
M720.422302,311.000122 
	C725.574585,312.092285 730.726929,313.184448 736.999939,314.514191 
	C736.999939,326.321259 737.037476,338.058441 736.980713,349.795166 
	C736.959229,354.237061 736.245483,354.851288 732.106812,354.519196 
	C732.312195,340.968842 725.601501,332.226807 713.420593,326.712158 
	C704.029358,322.460510 694.312500,322.029785 684.321350,321.912445 
	C674.920715,321.802032 666.635620,324.740662 659.927185,330.875153 
	C655.904114,334.554047 653.171326,339.243408 654.715210,345.945557 
	C656.357239,353.073853 660.695557,357.232605 666.530396,359.711548 
	C681.697327,366.155273 697.189087,371.829468 712.456665,378.043060 
	C721.948425,381.906006 731.338440,386.141296 736.941284,395.487152 
	C739.558472,399.852753 741.893677,404.387421 744.677002,409.425232 
	C744.677002,375.693634 744.677002,342.538727 744.677002,309.224731 
	C733.228516,309.224731 721.868347,309.224731 710.508179,309.224731 
	C710.501953,309.332947 710.495667,309.441193 710.489441,309.549408 
	C713.504150,310.032898 716.518860,310.516357 720.422302,311.000122 
M384.993469,453.490112 
	C380.988800,449.819000 376.819824,446.309906 373.010864,442.445892 
	C362.304993,431.585541 351.842651,420.484161 341.077332,409.684052 
	C337.527161,406.122406 333.537689,402.910828 329.391571,400.058960 
	C326.096558,397.792450 322.256836,396.317841 319.000092,394.664764 
	C319.000092,411.442169 318.038696,427.558258 319.295624,443.499390 
	C320.355499,456.941772 328.502289,463.544922 338.835449,465.595978 
	C338.971832,467.002411 339.108215,468.408813 339.233734,469.703369 
	C366.173676,469.703369 392.776855,469.703369 419.380005,469.703369 
	C405.317688,470.356354 394.988831,463.102600 384.993469,453.490112 
M324.950836,385.974396 
	C330.438812,385.982941 335.950073,386.318054 341.409698,385.928894 
	C351.365021,385.219208 359.195099,381.023346 364.100586,371.758362 
	C368.546783,363.360931 368.827911,354.338287 367.765533,345.529175 
	C366.570068,335.616302 362.054504,327.177643 351.719635,323.239899 
	C343.801422,320.222900 335.826233,320.635803 327.676514,321.716278 
	C323.604950,322.256012 320.308258,323.670593 319.203400,327.735321 
	C318.361725,330.831909 318.079437,334.156891 318.050629,337.384735 
	C317.930389,350.854431 318.294983,364.335632 317.848755,377.791595 
	C317.680145,382.876068 318.930359,385.463104 324.950836,385.974396 
M117.952477,388.571777 
	C117.239235,389.893890 116.525993,391.216003 115.773949,392.610046 
	C130.223602,392.610046 144.054855,392.610046 158.205704,392.610046 
	C151.481705,378.685516 144.974319,365.209503 137.854584,350.465424 
	C130.969727,363.812683 124.731712,375.905914 117.952477,388.571777 
M55.180061,469.976440 
	C70.308640,469.976440 85.437218,469.976440 100.565796,469.976440 
	C97.795868,468.978058 95.019630,468.943695 92.244469,468.983887 
	C79.641663,469.166412 67.039146,469.369965 55.180061,469.976440 
z"/>
<path fill="#000000" opacity="1.000000" stroke="none" 
	d="
M194.000458,470.000000 
	C187.200211,470.000000 180.899826,470.000000 174.599442,470.000000 
	C174.593521,469.726898 174.587601,469.453827 174.581680,469.180725 
	C185.650635,468.669373 196.719589,468.158020 208.456268,467.615845 
	C206.029892,462.221466 203.801498,456.943512 201.313339,451.791016 
	C189.917358,428.192108 178.428879,404.637939 167.012848,381.048706 
	C159.032883,364.559509 151.099838,348.047516 143.180588,331.529053 
	C140.546341,326.034393 138.114685,320.440247 135.372437,315.001526 
	C134.750198,313.767487 133.235001,312.149139 132.108475,312.131470 
	C119.220695,311.929321 106.328606,312.002869 93.221291,312.002869 
	C93.221291,312.381287 93.221291,313.453613 93.221291,314.855499 
	C101.309517,314.785492 109.159431,316.470703 115.506996,321.379333 
	C120.574867,325.298401 124.835205,330.389893 128.868561,335.429535 
	C129.892685,336.709167 129.348648,340.108429 128.406708,341.966919 
	C114.804802,368.804199 101.051636,395.565155 87.247528,422.299408 
	C80.559067,435.252869 74.147232,448.438629 63.034184,458.411743 
	C60.202175,460.953278 57.001785,463.084351 53.272774,465.938080 
	C53.272774,413.075439 53.272774,361.352264 53.272774,309.314331 
	C261.552856,309.314331 469.941284,309.314331 678.079651,309.314331 
	C673.719604,310.497406 668.987488,311.430786 664.506836,313.057068 
	C643.385498,320.723267 637.835266,339.028839 644.312378,357.940125 
	C645.777405,362.217712 650.324158,366.605927 654.553040,368.554260 
	C667.770264,374.643738 681.477173,379.685760 695.066406,384.947327 
	C704.687927,388.672607 714.219849,392.242035 722.099487,399.442719 
	C734.115051,410.422852 738.894348,427.905792 731.909180,446.292755 
	C740.471436,444.794250 740.371948,436.868164 744.429871,431.352020 
	C744.429871,444.445953 744.429871,456.871490 744.429871,469.649841 
	C727.841309,469.649841 710.768311,469.649841 695.353577,469.649841 
	C699.700500,467.374664 705.761047,464.879822 711.069031,461.276245 
	C720.631592,454.784180 724.901062,444.917389 725.921570,433.732666 
	C726.710327,425.088623 725.534851,416.343445 718.858093,410.288635 
	C713.132507,405.096313 706.550903,400.260834 699.503113,397.235046 
	C684.519104,390.802063 668.396545,386.842377 653.833130,379.655304 
	C637.247681,371.470245 629.751404,356.969574 633.972656,337.348145 
	C634.036926,337.049500 633.882324,336.703766 633.632812,335.164520 
	C631.855835,338.078979 630.309692,340.084137 629.312805,342.332825 
	C620.543396,362.113892 627.952087,383.643768 649.077576,391.997955 
	C665.454468,398.474243 682.213989,404.065460 698.274536,411.235046 
	C713.561768,418.059448 717.928711,433.263397 707.952393,447.077576 
	C703.253052,453.584686 696.391785,456.947937 688.633240,457.924866 
	C673.500427,459.830444 660.125671,455.297211 649.378967,444.645813 
	C642.567444,437.894653 637.612427,429.664856 637.000183,419.578003 
	C636.826965,416.723938 636.238281,414.300781 631.332703,415.389191 
	C631.918762,431.341736 632.512451,447.502197 633.097717,463.433746 
	C644.720032,465.417755 656.017944,467.346375 667.315857,469.275024 
	C667.311157,469.410645 667.306458,469.546265 667.301697,469.681885 
	C585.402649,469.681885 503.503632,469.681885 421.132904,469.681885 
	C424.236328,468.141846 428.770294,470.153931 430.251587,465.517456 
	C419.955231,463.840027 411.406677,459.615997 404.246613,452.719025 
	C392.650085,441.548645 381.372772,430.033875 369.502808,419.164520 
	C360.080811,410.536835 349.973450,402.657532 341.001434,395.142059 
	C348.188965,395.949585 356.278259,399.041138 363.279785,404.020599 
	C371.368378,409.773163 378.857819,416.402832 386.364563,422.930908 
	C398.512207,433.494843 410.053772,444.800354 422.642670,454.796021 
	C430.631042,461.138855 440.471954,464.212280 450.912994,460.878845 
	C454.158569,459.842651 457.041565,457.496429 459.865936,455.441315 
	C460.548828,454.944366 460.339600,453.221436 460.540588,452.062286 
	C459.434875,452.024353 458.180206,451.624786 457.248291,452.008667 
	C452.195587,454.090088 447.385315,452.995728 442.638733,451.127411 
	C432.053314,446.960846 423.271820,440.148224 414.955994,432.526550 
	C402.353149,420.975739 389.837494,409.286224 376.602264,398.492615 
	C371.987061,394.728790 365.349243,393.445129 360.160950,391.251190 
	C366.213531,388.852814 372.723663,385.078918 375.867950,378.314148 
	C378.785034,372.038177 380.908936,365.095886 381.792175,358.242065 
	C383.115234,347.975037 381.909790,337.725616 376.752563,328.355011 
	C370.603546,317.182251 361.110718,311.258118 348.398407,311.054230 
	C333.825562,310.820526 319.246124,311.000000 304.335999,311.000000 
	C304.335999,363.854218 304.335999,415.589935 304.335999,468.398315 
	C315.205627,468.398315 326.334198,468.398315 337.462769,468.398315 
	C337.463867,468.843964 337.464966,469.289642 337.466064,469.735291 
	C312.127808,469.735291 286.789520,469.735291 261.451263,469.735291 
	C261.445923,469.574615 261.440582,469.413971 261.435242,469.253296 
	C272.441620,468.735199 283.448029,468.217102 294.727356,467.686157 
	C294.727356,416.018250 294.727356,364.282959 294.727356,311.773621 
	C283.430878,311.773621 272.082062,311.773621 259.635406,311.773621 
	C260.492157,312.858826 261.141663,314.574890 262.213440,314.900299 
	C272.498688,318.023468 278.174377,325.477112 279.806885,335.424713 
	C281.367493,344.934509 281.769958,354.699738 281.909668,364.363861 
	C282.205963,384.857605 282.386017,405.369354 281.817261,425.851624 
	C281.576874,434.507568 279.853851,443.233521 277.834198,451.696014 
	C276.009094,459.343201 268.183594,464.741913 260.285919,465.099854 
	C260.110535,466.626862 259.930847,468.191010 259.739136,469.860046 
	C256.219330,469.860046 252.923645,469.860046 249.210419,469.860046 
	C249.083740,468.316101 248.956131,466.760712 248.836136,465.298218 
	C235.720139,459.796326 227.100357,449.483032 220.632370,437.827026 
	C211.060806,420.578033 202.806976,402.598328 193.971649,384.940002 
	C190.728043,378.457336 187.193726,372.109497 184.196640,365.516235 
	C176.634644,348.880554 169.353699,332.117004 161.770721,315.491089 
	C161.228424,314.302063 159.196655,313.227295 157.775345,313.112061 
	C153.802979,312.790100 149.787506,313.000061 145.350845,313.000061 
	C145.947052,314.884583 146.287384,316.695190 147.062469,318.295197 
	C154.005035,332.626404 161.067093,346.899750 168.011398,361.230103 
	C180.697769,387.409851 193.353714,413.604431 205.967270,439.819336 
	C210.429276,449.092773 214.730469,458.443634 219.044754,467.630646 
	C228.614197,468.127228 237.971390,468.612762 247.328568,469.098297 
	C247.326462,469.398865 247.324341,469.699432 247.322235,470.000000 
	C229.714935,470.000000 212.107620,470.000000 194.000458,470.000000 
M584.050476,402.511749 
	C585.374634,406.233826 586.698792,409.955902 588.142029,414.012756 
	C589.023560,413.952637 590.453857,413.855072 590.995972,413.818115 
	C590.995972,396.751068 590.995972,380.040436 590.995972,363.253540 
	C588.258667,362.823975 586.929443,362.928009 585.785156,366.083313 
	C583.295410,372.948486 579.461731,378.974396 570.704651,379.093140 
	C565.632324,379.161896 560.569336,379.752930 555.496765,379.999756 
	C544.806274,380.520020 534.112305,380.968445 523.051880,381.462769 
	C522.928040,361.737701 522.654541,342.884827 526.048218,324.000000 
	C540.281555,324.000000 554.094360,324.148438 567.902405,323.956299 
	C580.540161,323.780396 590.446960,327.620514 595.187622,340.473358 
	C595.665588,341.769226 597.803101,342.452942 600.194275,344.145386 
	C599.629211,332.029541 599.146729,321.683289 598.648438,311.000000 
	C596.923584,311.000000 595.293091,310.948730 593.666748,311.007843 
	C575.668701,311.662048 557.674744,312.453827 539.672485,312.951813 
	C529.902283,313.222046 520.118408,313.000000 510.204987,313.000000 
	C510.204987,364.836578 510.204987,416.226593 510.204987,468.308228 
	C540.085999,468.308228 569.764832,468.308228 599.435059,468.308228 
	C602.914001,457.351074 606.530579,445.960266 610.126770,434.633759 
	C606.097107,432.394958 604.561157,435.369720 603.073242,437.706238 
	C596.823730,447.519684 588.555359,454.121826 576.529602,454.999451 
	C571.455994,455.369751 566.380859,455.913025 561.301636,455.973419 
	C549.220398,456.117065 537.136230,456.019684 524.353516,456.019684 
	C523.736023,434.260773 523.138123,413.191742 522.536743,392.000031 
	C538.021545,392.000031 552.355652,391.656982 566.661316,392.146637 
	C573.674866,392.386688 580.378113,394.630402 584.050476,402.511749 
M499.286072,467.996124 
	C499.857391,466.398804 500.925049,464.802399 500.927948,463.204041 
	C501.016327,414.554352 501.000000,365.904510 501.000000,317.254669 
	C501.000000,315.953888 501.000000,314.653107 501.000000,312.842285 
	C489.833221,312.125885 479.004883,311.431183 468.176575,310.736481 
	C467.943115,311.369934 467.709625,312.003418 467.476166,312.636871 
	C468.699646,313.431885 469.854462,314.369263 471.158112,314.998077 
	C477.915619,318.257874 483.279175,323.237793 484.798737,330.513336 
	C486.620789,339.237183 487.804321,348.259247 487.845428,357.158691 
	C487.958832,381.734009 487.375336,406.313385 486.963409,430.889435 
	C486.883911,435.632690 486.835266,440.470795 485.891998,445.085175 
	C484.039581,454.146820 479.984680,461.790741 470.390839,465.086884 
	C469.237183,465.483276 468.476807,467.024384 467.566925,467.999756 
	C478.226776,467.999756 488.273071,467.999756 499.286072,467.996124 
M403.573059,368.942535 
	C414.969482,345.389160 402.045288,323.213379 380.935791,317.290833 
	C395.576172,339.418060 395.852997,361.925446 382.238159,385.628357 
	C391.782654,381.958496 398.995331,377.741486 403.573059,368.942535 
z"/>
<path fill="#000000" opacity="1.000000" stroke="none" 
	d="
M95.983231,431.902710 
	C100.466927,422.788239 104.934067,414.064911 109.575874,405.000488 
	C126.732338,405.000488 144.195038,404.961395 161.656494,405.091400 
	C162.777939,405.099762 164.464371,406.154846 164.919205,407.160950 
	C171.181335,421.012695 177.646011,434.793579 183.247299,448.914581 
	C185.983383,455.812225 184.104660,463.512207 172.931305,465.486847 
	C172.931305,466.852905 172.931305,468.283234 172.931305,469.830872 
	C149.169601,469.830872 125.744553,469.830872 102.128563,469.830872 
	C102.042671,468.227631 101.965134,466.780365 101.890305,465.383667 
	C89.199089,460.950897 87.126129,449.536957 92.688301,438.755371 
	C93.795593,436.608978 94.874626,434.448029 95.983231,431.902710 
z"/>
<path fill="#000000" opacity="1.000000" stroke="none" 
	d="
M719.977905,310.999969 
	C716.518860,310.516357 713.504150,310.032898 710.489441,309.549408 
	C710.495667,309.441193 710.501953,309.332947 710.508179,309.224731 
	C721.868347,309.224731 733.228516,309.224731 744.677002,309.224731 
	C744.677002,342.538727 744.677002,375.693634 744.677002,409.425232 
	C741.893677,404.387421 739.558472,399.852753 736.941284,395.487152 
	C731.338440,386.141296 721.948425,381.906006 712.456665,378.043060 
	C697.189087,371.829468 681.697327,366.155273 666.530396,359.711548 
	C660.695557,357.232605 656.357239,353.073853 654.715210,345.945557 
	C653.171326,339.243408 655.904114,334.554047 659.927185,330.875153 
	C666.635620,324.740662 674.920715,321.802032 684.321350,321.912445 
	C694.312500,322.029785 704.029358,322.460510 713.420593,326.712158 
	C725.601501,332.226807 732.312195,340.968842 732.106812,354.519196 
	C736.245483,354.851288 736.959229,354.237061 736.980713,349.795166 
	C737.037476,338.058441 736.999939,326.321259 736.999939,314.514191 
	C730.726929,313.184448 725.574585,312.092285 719.977905,310.999969 
z"/>
<path fill="#000000" opacity="1.000000" stroke="none" 
	d="
M385.247009,453.745270 
	C394.988831,463.102600 405.317688,470.356354 419.380005,469.703369 
	C392.776855,469.703369 366.173676,469.703369 339.233734,469.703369 
	C339.108215,468.408813 338.971832,467.002411 338.828857,465.596130 
	C328.502289,463.544922 320.355499,456.941772 319.295624,443.499390 
	C318.038696,427.558258 319.000092,411.442169 319.000092,394.664764 
	C322.256836,396.317841 326.096558,397.792450 329.391571,400.058960 
	C333.537689,402.910828 337.527161,406.122406 341.077332,409.684052 
	C351.842651,420.484161 362.304993,431.585541 373.010864,442.445892 
	C376.819824,446.309906 380.988800,449.819000 385.247009,453.745270 
z"/>
<path fill="#000000" opacity="1.000000" stroke="none" 
	d="
M324.527069,385.800659 
	C318.930359,385.463104 317.680145,382.876068 317.848755,377.791595 
	C318.294983,364.335632 317.930389,350.854431 318.050629,337.384735 
	C318.079437,334.156891 318.361725,330.831909 319.203400,327.735321 
	C320.308258,323.670593 323.604950,322.256012 327.676514,321.716278 
	C335.826233,320.635803 343.801422,320.222900 351.719635,323.239899 
	C362.054504,327.177643 366.570068,335.616302 367.765533,345.529175 
	C368.827911,354.338287 368.546783,363.360931 364.100586,371.758362 
	C359.195099,381.023346 351.365021,385.219208 341.409698,385.928894 
	C335.950073,386.318054 330.438812,385.982941 324.527069,385.800659 
z"/>
<path fill="#000000" opacity="1.000000" stroke="none" 
	d="
M118.223091,388.285461 
	C124.731712,375.905914 130.969727,363.812683 137.854584,350.465424 
	C144.974319,365.209503 151.481705,378.685516 158.205704,392.610046 
	C144.054855,392.610046 130.223602,392.610046 115.773949,392.610046 
	C116.525993,391.216003 117.239235,389.893890 118.223091,388.285461 
z"/>
<path fill="#000000" opacity="1.000000" stroke="none" 
	d="
M54.808296,469.771179 
	C67.039146,469.369965 79.641663,469.166412 92.244469,468.983887 
	C95.019630,468.943695 97.795868,468.978058 100.565796,469.976440 
	C85.437218,469.976440 70.308640,469.976440 54.808296,469.771179 
z"/>
<path fill="#FFFFFF" opacity="1.000000" stroke="none" 
	d="
M584.013306,402.124481 
	C580.378113,394.630402 573.674866,392.386688 566.661316,392.146637 
	C552.355652,391.656982 538.021545,392.000031 522.536743,392.000031 
	C523.138123,413.191742 523.736023,434.260773 524.353516,456.019684 
	C537.136230,456.019684 549.220398,456.117065 561.301636,455.973419 
	C566.380859,455.913025 571.455994,455.369751 576.529602,454.999451 
	C588.555359,454.121826 596.823730,447.519684 603.073242,437.706238 
	C604.561157,435.369720 606.097107,432.394958 610.126770,434.633759 
	C606.530579,445.960266 602.914001,457.351074 599.435059,468.308228 
	C569.764832,468.308228 540.085999,468.308228 510.204987,468.308228 
	C510.204987,416.226593 510.204987,364.836578 510.204987,313.000000 
	C520.118408,313.000000 529.902283,313.222046 539.672485,312.951813 
	C557.674744,312.453827 575.668701,311.662048 593.666748,311.007843 
	C595.293091,310.948730 596.923584,311.000000 598.648438,311.000000 
	C599.146729,321.683289 599.629211,332.029541 600.194275,344.145386 
	C597.803101,342.452942 595.665588,341.769226 595.187622,340.473358 
	C590.446960,327.620514 580.540161,323.780396 567.902405,323.956299 
	C554.094360,324.148438 540.281555,324.000000 526.048218,324.000000 
	C522.654541,342.884827 522.928040,361.737701 523.051880,381.462769 
	C534.112305,380.968445 544.806274,380.520020 555.496765,379.999756 
	C560.569336,379.752930 565.632324,379.161896 570.704651,379.093140 
	C579.461731,378.974396 583.295410,372.948486 585.785156,366.083313 
	C586.929443,362.928009 588.258667,362.823975 590.995972,363.253540 
	C590.995972,380.040436 590.995972,396.751068 590.995972,413.818115 
	C590.453857,413.855072 589.023560,413.952637 588.142029,414.012756 
	C586.698792,409.955902 585.374634,406.233826 584.013306,402.124481 
z"/>
<path fill="#FFFFFF" opacity="1.000000" stroke="none" 
	d="
M498.802704,467.997925 
	C488.273071,467.999756 478.226776,467.999756 467.566925,467.999756 
	C468.476807,467.024384 469.237183,465.483276 470.390839,465.086884 
	C479.984680,461.790741 484.039581,454.146820 485.891998,445.085175 
	C486.835266,440.470795 486.883911,435.632690 486.963409,430.889435 
	C487.375336,406.313385 487.958832,381.734009 487.845428,357.158691 
	C487.804321,348.259247 486.620789,339.237183 484.798737,330.513336 
	C483.279175,323.237793 477.915619,318.257874 471.158112,314.998077 
	C469.854462,314.369263 468.699646,313.431885 467.476166,312.636871 
	C467.709625,312.003418 467.943115,311.369934 468.176575,310.736481 
	C479.004883,311.431183 489.833221,312.125885 501.000000,312.842285 
	C501.000000,314.653107 501.000000,315.953888 501.000000,317.254669 
	C501.000000,365.904510 501.016327,414.554352 500.927948,463.204041 
	C500.925049,464.802399 499.857391,466.398804 498.802704,467.997925 
z"/>
<path fill="#FFFFFF" opacity="1.000000" stroke="none" 
	d="
M403.309387,369.223694 
	C398.995331,377.741486 391.782654,381.958496 382.238159,385.628357 
	C395.852997,361.925446 395.576172,339.418060 380.935791,317.290833 
	C402.045288,323.213379 414.969482,345.389160 403.309387,369.223694 
z"/>
</svg>